<svg width="60" height="60" viewBox="0 0 60 60" fill="none" xmlns="http://www.w3.org/2000/svg">
<g clip-path="url(#clip0)">
<path d="M13.7211 51.4489L12.7624 44.6746C12.6259 43.7104 11.7327 43.0374 10.7694 43.1757C9.8051 43.3121 9.13407 44.2045 9.27056 45.1687L9.48522 46.6858C7.65448 44.4264 6.19675 41.8645 5.18692 39.1033C-1.96136 19.5592 15.3019 -0.151735 35.4293 4.14175C36.3815 4.34442 37.3184 3.73758 37.5218 2.78512C37.7251 1.83266 37.1176 0.895831 36.1652 0.692572C13.4373 -4.15649 -6.27624 18.0296 1.87482 40.3148C3.01678 43.4373 4.66449 46.3361 6.73446 48.8937L5.03056 48.5664C4.07387 48.3829 3.14986 49.009 2.96612 49.9653C2.78237 50.9218 3.40872 51.846 4.36506 52.0298L11.4919 53.3989C12.7755 53.7611 13.8913 52.6497 13.7211 51.4489Z" fill="#F2CA7C"/>
<path d="M58.1631 19.7049C57.0212 16.5825 55.3735 13.6837 53.3035 11.1261L55.0075 11.4534C55.9634 11.6368 56.8882 11.0108 57.0719 10.0544C57.2557 9.09797 56.6293 8.17373 55.673 7.98998L48.5447 6.62054C47.2775 6.26387 46.1442 7.35117 46.317 8.5706L47.2757 15.345C47.4003 16.2256 48.1549 16.8616 49.0194 16.8616C50.0973 16.8616 50.9173 15.909 50.7675 14.8508L50.5528 13.3337C52.3836 15.5931 53.8413 18.1551 54.8511 20.9162C59.8574 34.6039 52.8162 49.8197 39.1553 54.8348C34.4817 56.5506 29.4516 56.911 24.6088 55.8778C23.6567 55.6746 22.7195 56.282 22.5162 57.2344C22.313 58.1869 22.9204 59.1237 23.8729 59.327C29.3672 60.4993 35.072 60.0906 40.3706 58.1455C55.8926 52.4474 63.8503 35.2541 58.1631 19.7049Z" fill="#F2CA7C"/>
<path d="M48.2984 30.1019C48.2984 20.0056 40.0982 11.7917 30.0188 11.7917C19.9395 11.7917 11.7393 20.0056 11.7393 30.1019C11.7393 40.1982 19.9395 48.4122 30.0188 48.4122C40.0982 48.4122 48.2984 40.1982 48.2984 30.1019ZM15.266 30.1019C15.266 21.9503 21.8841 15.3184 30.0188 15.3184C38.1535 15.3184 44.7716 21.9503 44.7716 30.1019C44.7716 38.2536 38.1535 44.8854 30.0188 44.8854C21.8841 44.8854 15.266 38.2536 15.266 30.1019Z" fill="#F2CA7C"/>
<path d="M31.7824 40.0068V38.5348C34.8381 38.5348 36.9642 36.1366 36.9642 33.4368C36.9642 30.6256 34.68 28.3386 31.8723 28.3386H28.1658C27.3027 28.3386 26.6006 27.6337 26.6006 26.7672C26.6006 25.9309 27.2588 25.1959 28.1904 25.1959H31.7391C32.3618 25.2021 32.9781 25.4827 33.4305 25.9665C34.0957 26.6777 35.2116 26.7149 35.9229 26.0496C36.6341 25.3843 36.6713 24.2685 36.006 23.5572C34.9 22.3748 33.3616 21.6882 31.7824 21.6699V20.1973C31.7824 19.2234 30.9928 18.4339 30.019 18.4339C29.0451 18.4339 28.2556 19.2234 28.2556 20.1973V21.6692C25.1999 21.6692 23.0737 24.0674 23.0737 26.7673C23.0737 29.5785 25.358 31.8655 28.1657 31.8655H31.8722C32.7353 31.8655 33.4374 32.5703 33.4374 33.4369C33.4374 34.3093 32.7333 35.0083 31.8724 35.0083C31.8642 35.0083 31.8557 35.0082 31.8475 35.0082H27.9753C27.536 35.0037 27.0687 34.8444 26.6589 34.5597C25.8591 34.0039 24.7602 34.2017 24.2045 35.0013C23.6487 35.8011 23.8464 36.8998 24.6462 37.4557C25.8535 38.2949 26.9773 38.535 28.2555 38.535V40.007C28.2555 40.9809 29.045 41.7704 30.0189 41.7704C30.9928 41.7701 31.7824 40.9806 31.7824 40.0068Z" fill="#F2CA7C"/>
</g>
<defs>
<clipPath id="clip0">
<rect width="60" height="60" fill="white"/>
</clipPath>
</defs>
</svg>
