<svg width="60" height="61" viewBox="0 0 60 61" fill="none" xmlns="http://www.w3.org/2000/svg">
<path d="M51.0935 8.03125H46.9745C41.1925 8.03125 35.4586 5.61334 31.2426 1.3978C30.5564 0.711151 29.4431 0.711151 28.7569 1.3978C24.5409 5.61334 18.807 8.03125 13.025 8.03125H8.90601C7.93509 8.03125 7.14819 8.81815 7.14819 9.78906V30.8828C7.14819 37.9191 9.35461 43.8627 13.8929 49.0533C17.696 53.403 22.4906 56.4315 26.3431 58.865C27.2994 59.4688 28.2026 60.0392 29.0247 60.5876C29.32 60.7844 29.6601 60.8828 29.9998 60.8828C30.3394 60.8828 30.6795 60.7844 30.9748 60.5876C31.7708 60.057 32.6575 59.4981 33.5959 58.9066C41.2639 54.0736 52.8513 46.77 52.8513 30.8828V9.78906C52.8513 8.81815 52.0644 8.03125 51.0935 8.03125ZM49.3357 30.8828C49.3357 44.8304 39.155 51.2469 31.7214 55.9321C31.1258 56.3079 30.5504 56.67 30.0002 57.0243C29.4303 56.6567 28.8361 56.2814 28.2204 55.8927C20.8111 51.2121 10.6638 44.8025 10.6638 30.8828V11.5469H13.025C19.1782 11.5469 25.2743 9.19672 29.9998 5.048C34.7252 9.19672 40.8213 11.5469 46.9745 11.5469H49.3357V30.8828Z" fill="#F2CA7C"/>
<path d="M29.9998 15.0625C21.2766 15.0625 14.1794 22.1592 14.1794 30.8828C14.1794 39.606 21.2766 46.7031 29.9998 46.7031C38.7229 46.7031 45.8201 39.606 45.8201 30.8828C45.8201 22.1592 38.7234 15.0625 29.9998 15.0625ZM29.9998 43.1875C23.2148 43.1875 17.6951 37.6678 17.6951 30.8828C17.6951 24.0978 23.2148 18.5781 29.9998 18.5781C36.7847 18.5781 42.3044 24.0978 42.3044 30.8828C42.3044 37.6678 36.7847 43.1875 29.9998 43.1875Z" fill="#F2CA7C"/>
<path d="M35.7882 26.1244L28.2419 33.6701L24.2113 29.64C23.5251 28.9533 22.4119 28.9533 21.7257 29.64C21.039 30.3262 21.039 31.4394 21.7257 32.1256L26.9991 37.3991C27.342 37.7424 27.792 37.9141 28.2419 37.9141C28.6919 37.9141 29.1419 37.7424 29.4848 37.3991L38.2738 28.61C38.9605 27.9234 38.9605 26.8105 38.2738 26.1239C37.5876 25.4377 36.4744 25.4377 35.7882 26.1244Z" fill="#F2CA7C"/>
</svg>
