<svg width="60" height="60" viewBox="0 0 60 60" fill="none" xmlns="http://www.w3.org/2000/svg">
<path d="M34.6957 24.8501H51.2727C56.0849 24.8501 60 20.9351 60 16.1228V15.9993C60 11.1871 56.085 7.27195 51.2727 7.27195H24.2529C24.257 7.17457 24.2593 7.09312 24.2593 7.03125C24.2593 3.15422 21.1051 0 17.2281 0C13.3511 0 10.1968 3.15422 10.1968 7.03125C10.1968 7.09312 10.1992 7.17457 10.2033 7.27195H1.75781C0.787031 7.27195 0 8.05898 0 9.02977C0 10.0005 0.787031 10.7876 1.75781 10.7876H10.4838C11.5184 22.0822 15.0205 54.2186 15.4806 58.433C15.578 59.3246 16.331 60 17.2281 60C18.1252 60 18.8782 59.3246 18.9756 58.433C19.4357 54.2186 22.9378 22.0822 23.9723 10.7876H51.2727C54.1464 10.7876 56.4844 13.1256 56.4844 15.9993V16.1228C56.4844 18.9964 54.1465 21.3345 51.2727 21.3345H34.6957C29.8835 21.3345 25.9684 25.2496 25.9684 30.0618C25.9684 34.8739 29.8835 38.7891 34.6957 38.7891H51.2727C54.1465 38.7891 56.4844 41.127 56.4844 44.0007V44.1244C56.4844 46.998 54.1465 49.3359 51.2727 49.3359H34.8746C29.9637 49.3359 25.9684 53.3312 25.9684 58.2422C25.9684 59.213 26.7554 60 27.7262 60C28.697 60 29.484 59.213 29.484 58.2422C29.484 55.2698 31.9023 52.8516 34.8746 52.8516H51.2727C56.085 52.8516 60 48.9366 60 44.1243V44.0006C60 39.1884 56.085 35.2734 51.2727 35.2734H34.6957C31.822 35.2734 29.484 32.9355 29.484 30.0618C29.484 27.188 31.822 24.8501 34.6957 24.8501ZM17.2281 41.8918C15.9015 29.5073 14.585 16.9354 14.0114 10.7877H15.4857C15.5947 11.6539 16.3324 12.3245 17.2282 12.3245C18.199 12.3245 18.986 11.5375 18.986 10.5667V7.49297C18.986 6.52219 18.199 5.73516 17.2282 5.73516C16.3324 5.73516 15.5947 6.4057 15.4857 7.27195H13.7202C13.7153 7.17152 13.7126 7.08926 13.7126 7.03125C13.7126 5.09273 15.2897 3.51562 17.2282 3.51562C19.1667 3.51562 20.7438 5.09273 20.7438 7.03125C20.7437 9.14648 17.4564 39.7604 17.2281 41.8918Z" fill="#F2CA7C"/>
</svg>
