<svg width="76" height="76" viewBox="0 0 76 76" fill="none" xmlns="http://www.w3.org/2000/svg">
<g clip-path="url(#clip0)">
<path fill-rule="evenodd" clip-rule="evenodd" d="M30.1097 49.294H53.2868C55.9112 41.5677 66.8613 41.6419 69.4602 49.294H71.3968V38.1571C71.3968 36.7696 70.2598 35.6325 68.8728 35.6325C63.1806 35.6325 57.4883 35.6325 51.7961 35.6325C50.5657 35.6325 49.5684 34.6352 49.5684 33.4054V20.0408H11.406V22.7133H15.5014C18.4336 22.7133 18.4336 27.1681 15.5014 27.1681H11.406V31.4745H22.0976C25.0304 31.4745 25.0304 35.9294 22.0976 35.9294H11.406V49.2934H13.937C16.5607 41.5671 27.5115 41.6425 30.1097 49.294ZM6.95115 27.1681H4.27869C1.34589 27.1681 1.34589 22.7133 4.27869 22.7133H6.95115V17.8131C6.95115 16.5833 7.94846 15.5859 9.17887 15.5859C12.5877 15.5859 50.0514 15.6004 50.0514 15.5859C56.1489 15.5859 61.4602 18.6046 64.5855 23.8492L68.9528 31.1783C72.7641 31.2212 75.8517 34.3389 75.8517 38.1566V51.5211C75.8517 52.751 74.8544 53.7483 73.6245 53.7483H69.7414C68.9429 57.6796 65.4692 60.5787 61.3738 60.5787C57.2784 60.5787 53.8046 57.6796 53.0062 53.7483H30.3909C29.5925 57.6796 26.1187 60.5787 22.0234 60.5787C17.928 60.5787 14.4542 57.6796 13.6558 53.7483H9.17887C7.94846 53.7483 6.95115 52.751 6.95115 51.5211V44.8386H2.05097C-0.881249 44.8386 -0.881249 40.3843 2.05097 40.3843H6.95115V35.9294H2.05097C-0.881249 35.9294 -0.881249 31.4745 2.05097 31.4745H6.95115V27.1681ZM64.2614 49.1531C65.8559 50.7477 65.8559 53.3337 64.2614 54.9283C61.6962 57.4934 57.29 55.6687 57.29 52.0407C57.29 48.4127 61.6962 46.5879 64.2614 49.1531ZM63.783 31.1777H54.0232V20.6444C56.865 21.5553 59.189 23.4676 60.7742 26.1285L63.783 31.1777ZM24.9109 49.1531C26.5055 50.7477 26.5055 53.3337 24.9109 54.9283C22.3457 57.4934 17.9396 55.6687 17.9396 52.0407C17.9402 48.4127 22.3457 46.5879 24.9109 49.1531Z" fill="#F2CA7C"/>
</g>
<defs>
<clipPath id="clip0">
<rect width="76" height="76" fill="white"/>
</clipPath>
</defs>
</svg>
