<svg width="177" height="56" viewBox="0 0 177 56" fill="none" xmlns="http://www.w3.org/2000/svg">
<path d="M5.61523 47.2109C6.22852 47.2109 6.79102 47.3438 7.30273 47.6094C7.81836 47.875 8.20117 48.2227 8.45117 48.6523C8.70117 49.0781 8.82617 49.5918 8.82617 50.1934C8.82617 51.1543 8.49805 51.8926 7.8418 52.4082C7.18945 52.9199 6.44922 53.1758 5.62109 53.1758C5.03516 53.1758 4.49805 53.0449 4.00977 52.7832C3.52539 52.5176 3.15234 52.1621 2.89062 51.7168C2.62891 51.2676 2.49805 50.7617 2.49805 50.1992C2.49805 49.3516 2.79297 48.6426 3.38281 48.0723C3.97656 47.498 4.7207 47.2109 5.61523 47.2109ZM5.65039 47.7676C5.24414 47.7676 4.91992 47.9473 4.67773 48.3066C4.43945 48.6621 4.32031 49.2891 4.32031 50.1875C4.32031 51.1211 4.43945 51.7656 4.67773 52.1211C4.91602 52.4727 5.23828 52.6484 5.64453 52.6484C6.05859 52.6484 6.39258 52.4668 6.64648 52.1035C6.90039 51.7402 7.02734 51.1133 7.02734 50.2227C7.02734 49.3086 6.90234 48.6719 6.65234 48.3125C6.40234 47.9492 6.06836 47.7676 5.65039 47.7676ZM15.7812 54.582C15.7227 54.1953 15.6289 53.8848 15.5 53.6504C15.375 53.4199 15.2129 53.2539 15.0137 53.1523C14.8184 53.0508 14.543 53 14.1875 53H11.4219C11.0117 53 10.6875 53.1172 10.4492 53.3516C10.2148 53.5898 10.0508 54 9.95703 54.582H9.41211V52.4551C9.7793 52.4551 10.0586 52.4141 10.25 52.332C10.4453 52.2461 10.627 52.0742 10.7949 51.8164C10.9629 51.5586 11.0898 51.1992 11.1758 50.7383C11.2617 50.2734 11.3047 49.7598 11.3047 49.1973C11.3047 48.4395 11.0703 48.0605 10.6016 48.0605H10.4434V47.5156H16.3262V48.0605H15.9512C15.6309 48.0605 15.4707 48.1914 15.4707 48.4531V52.0625C15.4707 52.3242 15.6309 52.4551 15.9512 52.4551H16.3262V54.582H15.7812ZM13.9297 52.4551V48.0605H13.0684C12.6699 48.0605 12.4277 48.0938 12.3418 48.1602C12.2598 48.2227 12.1797 48.3047 12.1016 48.4062C12.0273 48.5039 11.9707 48.7676 11.9316 49.1973C11.8262 50.3652 11.6777 51.1582 11.4863 51.5762C11.2949 51.9941 11.0195 52.2871 10.6602 52.4551H13.9297ZM23.0527 50.293H19.2031C19.2148 51.0625 19.3691 51.6309 19.666 51.998C19.9668 52.3613 20.3516 52.543 20.8203 52.543C21.1562 52.543 21.4746 52.4492 21.7754 52.2617C22.0762 52.0742 22.3848 51.7344 22.7012 51.2422L23.1289 51.5059C22.7969 52.0918 22.416 52.5117 21.9863 52.7656C21.5605 53.0156 21.0391 53.1406 20.4219 53.1406C19.5234 53.1406 18.7969 52.8672 18.2422 52.3203C17.6875 51.7734 17.4102 51.0723 17.4102 50.2168C17.4102 49.3613 17.6895 48.6465 18.248 48.0723C18.8066 47.498 19.4922 47.2109 20.3047 47.2109C20.8672 47.2109 21.3496 47.3262 21.752 47.5566C22.1582 47.7871 22.4727 48.125 22.6953 48.5703C22.9219 49.0117 23.041 49.5859 23.0527 50.293ZM19.2031 49.7656H21.0371C21.209 49.7656 21.332 49.7227 21.4062 49.6367C21.4805 49.5508 21.5176 49.3945 21.5176 49.168C21.5176 48.7148 21.4141 48.3652 21.207 48.1191C21 47.8691 20.7363 47.7441 20.416 47.7441C20.0371 47.7441 19.7461 47.9121 19.543 48.248C19.3438 48.584 19.2305 49.0898 19.2031 49.7656ZM34.1562 51.6992C34.0938 52.2344 33.9453 52.5996 33.7109 52.7949C33.4766 52.9902 33.1523 53.0879 32.7383 53.0879C32.3906 53.0879 32.123 53.0137 31.9355 52.8652C31.748 52.7168 31.6055 52.4668 31.5078 52.1152L31.2852 51.3066C31.1133 50.6895 30.7285 50.3809 30.1309 50.3809H29.8379V52.0625C29.8379 52.3242 30 52.4551 30.3242 52.4551H30.6934V53H27.4414V52.4551H27.8047C28.1289 52.4551 28.291 52.3242 28.291 52.0625V50.3809H27.998C27.4004 50.3809 27.0156 50.6895 26.8438 51.3066L26.6211 52.1152C26.5117 52.5059 26.3574 52.7656 26.1582 52.8945C25.959 53.0234 25.7109 53.0879 25.4141 53.0879C24.9531 53.0879 24.6113 52.9824 24.3887 52.7715C24.166 52.5605 24.0273 52.2031 23.9727 51.6992H24.3594C24.4492 52.1523 24.5801 52.3789 24.752 52.3789C24.8887 52.3789 24.998 52.2402 25.0801 51.9629L25.3379 51.1074C25.5176 50.5098 26.0781 50.1797 27.0195 50.1172C26.7891 50.0195 26.6211 49.9121 26.5156 49.7949C26.4141 49.6777 26.3438 49.4668 26.3047 49.1621C26.2305 48.627 26.1426 48.2871 26.041 48.1426C25.9434 47.998 25.8438 47.9258 25.7422 47.9258C25.6797 47.9258 25.6484 47.9512 25.6484 48.002C25.6484 48.0293 25.6621 48.0664 25.6895 48.1133C25.7715 48.2344 25.8125 48.3613 25.8125 48.4941C25.8125 48.6973 25.7383 48.8711 25.5898 49.0156C25.4414 49.1602 25.2578 49.2324 25.0391 49.2324C24.793 49.2324 24.5996 49.1504 24.459 48.9863C24.3223 48.8184 24.2539 48.6172 24.2539 48.3828C24.2539 48.1172 24.3555 47.8887 24.5586 47.6973C24.7656 47.5059 25.0527 47.4102 25.4199 47.4102C26.1543 47.4102 26.5781 47.8594 26.6914 48.7578C26.7305 49.0742 26.7793 49.3066 26.8379 49.4551C26.8965 49.5996 27 49.7168 27.1484 49.8066C27.3008 49.8965 27.5195 49.9414 27.8047 49.9414H28.291V48.459C28.291 48.1934 28.1289 48.0605 27.8047 48.0605H27.4414V47.5156H30.6934V48.0605H30.3242C30 48.0605 29.8379 48.1934 29.8379 48.459V49.9414H30.3242C30.6016 49.9414 30.8145 49.8984 30.9629 49.8125C31.1152 49.7266 31.2227 49.6113 31.2852 49.4668C31.3477 49.3223 31.3984 49.0859 31.4375 48.7578C31.5547 47.8594 31.9785 47.4102 32.709 47.4102C33.0801 47.4102 33.3652 47.5059 33.5645 47.6973C33.7676 47.8887 33.8691 48.1172 33.8691 48.3828C33.8691 48.6172 33.8008 48.8184 33.6641 48.9863C33.5273 49.1504 33.334 49.2324 33.084 49.2324C32.8652 49.2324 32.6816 49.1602 32.5332 49.0156C32.3848 48.8711 32.3105 48.6973 32.3105 48.4941C32.3105 48.3652 32.3496 48.2422 32.4277 48.125C32.4629 48.0703 32.4805 48.0293 32.4805 48.002C32.4805 47.9512 32.4492 47.9258 32.3867 47.9258C32.1211 47.9258 31.9414 48.2852 31.8477 49.0039C31.8008 49.3594 31.7344 49.6035 31.6484 49.7363C31.5625 49.8691 31.3828 49.9961 31.1094 50.1172C32.0469 50.1797 32.6074 50.5098 32.791 51.1074L33.043 51.9629C33.1289 52.2402 33.2422 52.3789 33.3828 52.3789C33.543 52.3789 33.6699 52.1523 33.7637 51.6992H34.1562ZM40.8945 54.582C40.8359 54.1953 40.7422 53.8848 40.6133 53.6504C40.4883 53.4199 40.3262 53.2539 40.127 53.1523C39.9316 53.0508 39.6562 53 39.3008 53H36.5352C36.125 53 35.8008 53.1172 35.5625 53.3516C35.3281 53.5898 35.1641 54 35.0703 54.582H34.5254V52.4551C34.8926 52.4551 35.1719 52.4141 35.3633 52.332C35.5586 52.2461 35.7402 52.0742 35.9082 51.8164C36.0762 51.5586 36.2031 51.1992 36.2891 50.7383C36.375 50.2734 36.418 49.7598 36.418 49.1973C36.418 48.4395 36.1836 48.0605 35.7148 48.0605H35.5566V47.5156H41.4395V48.0605H41.0645C40.7441 48.0605 40.584 48.1914 40.584 48.4531V52.0625C40.584 52.3242 40.7441 52.4551 41.0645 52.4551H41.4395V54.582H40.8945ZM39.043 52.4551V48.0605H38.1816C37.7832 48.0605 37.541 48.0938 37.4551 48.1602C37.373 48.2227 37.293 48.3047 37.2148 48.4062C37.1406 48.5039 37.084 48.7676 37.0449 49.1973C36.9395 50.3652 36.791 51.1582 36.5996 51.5762C36.4082 51.9941 36.1328 52.2871 35.7734 52.4551H39.043ZM48.8047 52.3203L49.0508 52.7422C48.8125 52.9062 48.5977 53.0195 48.4062 53.082C48.2188 53.1445 48.0117 53.1758 47.7852 53.1758C47.4492 53.1758 47.1777 53.1055 46.9707 52.9648C46.7637 52.8203 46.5742 52.5508 46.4023 52.1562C46.0039 52.5508 45.6465 52.8203 45.3301 52.9648C45.0137 53.1055 44.6562 53.1758 44.2578 53.1758C43.707 53.1758 43.2773 53.0488 42.9688 52.7949C42.6602 52.541 42.5059 52.2188 42.5059 51.8281C42.5059 51.2383 42.791 50.7656 43.3613 50.4102C43.8184 50.1289 44.8203 49.8477 46.3672 49.5664V48.7754C46.3672 48.4629 46.2637 48.209 46.0566 48.0137C45.8496 47.8145 45.5723 47.7148 45.2246 47.7148C44.959 47.7148 44.7246 47.7715 44.5215 47.8848C44.3848 47.959 44.3164 48.0332 44.3164 48.1074C44.3164 48.1465 44.3418 48.2051 44.3926 48.2832C44.502 48.459 44.5566 48.6328 44.5566 48.8047C44.5566 49.0234 44.4844 49.2012 44.3398 49.3379C44.1953 49.4707 44.002 49.5371 43.7598 49.5371C43.502 49.5371 43.2949 49.4648 43.1387 49.3203C42.9824 49.1719 42.9043 48.9824 42.9043 48.752C42.9043 48.373 43.1094 48.0391 43.5195 47.75C44.0312 47.3906 44.668 47.2109 45.4297 47.2109C46.0039 47.2109 46.5137 47.3008 46.959 47.4805C47.2441 47.5938 47.4746 47.793 47.6504 48.0781C47.8301 48.3594 47.9199 48.707 47.9199 49.1211V51.9043C47.9199 52.1152 47.959 52.2676 48.0371 52.3613C48.1152 52.4551 48.2227 52.502 48.3594 52.502C48.4727 52.502 48.6211 52.4414 48.8047 52.3203ZM46.3672 50.0762C45.5312 50.1895 44.9648 50.3652 44.668 50.6035C44.375 50.8379 44.2285 51.1484 44.2285 51.5352C44.2285 51.8086 44.2969 52.0195 44.4336 52.168C44.5742 52.3125 44.7695 52.3848 45.0195 52.3848C45.4062 52.3848 45.7266 52.2461 45.9805 51.9688C46.2383 51.6914 46.3672 51.3125 46.3672 50.832V50.0762ZM59.1406 54.582C59.082 54.1953 58.9883 53.8848 58.8594 53.6504C58.7344 53.4199 58.5723 53.2539 58.373 53.1523C58.1777 53.0508 57.9023 53 57.5469 53H54.7812C54.3711 53 54.0469 53.1172 53.8086 53.3516C53.5742 53.5898 53.4102 54 53.3164 54.582H52.7715V52.4551C53.1387 52.4551 53.418 52.4141 53.6094 52.332C53.8047 52.2461 53.9863 52.0742 54.1543 51.8164C54.3223 51.5586 54.4492 51.1992 54.5352 50.7383C54.6211 50.2734 54.6641 49.7598 54.6641 49.1973C54.6641 48.4395 54.4297 48.0605 53.9609 48.0605H53.8027V47.5156H59.6855V48.0605H59.3105C58.9902 48.0605 58.8301 48.1914 58.8301 48.4531V52.0625C58.8301 52.3242 58.9902 52.4551 59.3105 52.4551H59.6855V54.582H59.1406ZM57.2891 52.4551V48.0605H56.4277C56.0293 48.0605 55.7871 48.0938 55.7012 48.1602C55.6191 48.2227 55.5391 48.3047 55.4609 48.4062C55.3867 48.5039 55.3301 48.7676 55.291 49.1973C55.1855 50.3652 55.0371 51.1582 54.8457 51.5762C54.6543 51.9941 54.3789 52.2871 54.0195 52.4551H57.2891ZM67.5605 47.5156V48.0254H67.1914C66.8672 48.0254 66.7051 48.1641 66.7051 48.4414V52.0625C66.7051 52.3242 66.8672 52.4551 67.1914 52.4551H67.5605V53H64.3086V52.4551H64.6777C65.002 52.4551 65.1641 52.3242 65.1641 52.0625V48.0254H64.0508C63.7461 48.0254 63.5469 48.0977 63.4531 48.2422C63.3594 48.3867 63.2754 48.7988 63.2012 49.4785C63.0605 50.7168 62.9316 51.5371 62.8145 51.9395C62.6973 52.3418 62.5156 52.6328 62.2695 52.8125C62.0273 52.9922 61.7227 53.082 61.3555 53.082C61.0664 53.082 60.8184 53.0078 60.6113 52.8594C60.4043 52.707 60.3008 52.4844 60.3008 52.1914C60.3008 51.9492 60.3691 51.748 60.5059 51.5879C60.6426 51.4238 60.8281 51.3418 61.0625 51.3418C61.5547 51.3418 61.8008 51.6094 61.8008 52.1445C61.8008 52.3125 61.8477 52.3965 61.9414 52.3965C62.207 52.3965 62.3945 52.0156 62.5039 51.2539C62.6133 50.4922 62.668 49.8066 62.668 49.1973C62.668 48.7598 62.6016 48.4551 62.4688 48.2832C62.3359 48.1113 62.1074 48.0254 61.7832 48.0254H61.6426V47.5156H67.5605ZM71.2695 50.416C69.832 50.2754 69.1133 49.7852 69.1133 48.9453C69.1133 48.543 69.2734 48.2051 69.5938 47.9316C69.9141 47.6543 70.5332 47.5156 71.4512 47.5156H74.9609V48.0605H74.5918C74.2676 48.0605 74.1055 48.1914 74.1055 48.4531V52.0625C74.1055 52.3242 74.2676 52.4551 74.5918 52.4551H74.9609V53H71.7031V52.4551H72.0898C72.4023 52.4551 72.5586 52.3242 72.5586 52.0625V50.5918H72.3242C71.6836 50.5918 71.2871 50.9023 71.1348 51.5234L70.9707 52.1914C70.873 52.5859 70.7207 52.8496 70.5137 52.9824C70.3105 53.1113 70.0508 53.1758 69.7344 53.1758C69.3359 53.1758 69.0176 53.082 68.7793 52.8945C68.541 52.707 68.3867 52.334 68.3164 51.7754H68.709C68.7871 52.0918 68.8496 52.2871 68.8965 52.3613C68.9473 52.4316 69.0039 52.4668 69.0664 52.4668C69.1367 52.4668 69.1914 52.4414 69.2305 52.3906C69.2734 52.3359 69.332 52.2012 69.4062 51.9863L69.6172 51.3887C69.7148 51.1113 69.8809 50.8984 70.1152 50.75C70.3496 50.5977 70.7344 50.4863 71.2695 50.416ZM72.5586 50.0117V48.541C72.5586 48.3535 72.5312 48.2266 72.4766 48.1602C72.4219 48.0938 72.291 48.0605 72.084 48.0605H71.8027C71.0723 48.0605 70.707 48.3926 70.707 49.0566C70.707 49.2871 70.752 49.4766 70.8418 49.625C70.9355 49.7695 71.0508 49.8711 71.1875 49.9297C71.3242 49.9844 71.5723 50.0117 71.9316 50.0117H72.5586ZM86.5098 47.5156V48.0605H86.1406C85.8164 48.0605 85.6543 48.1914 85.6543 48.4531V52.0625C85.6543 52.3242 85.8164 52.4551 86.1406 52.4551H86.5098V53H83.2578V52.4551H83.6328C83.9531 52.4551 84.1133 52.3242 84.1133 52.0625V48.1367H81.7578V52.0625C81.7578 52.3242 81.918 52.4551 82.2383 52.4551H82.6133V53H79.3613V52.4551H79.7305C80.0547 52.4551 80.2168 52.3242 80.2168 52.0625V48.4531C80.2168 48.1914 80.0547 48.0605 79.7305 48.0605H79.3613V47.5156H86.5098ZM87.5586 47.5449L89.791 47.4043C89.8809 47.7637 89.9336 48.1211 89.9492 48.4766C90.1797 48.1055 90.4746 47.8184 90.834 47.6152C91.1973 47.4082 91.5996 47.3047 92.041 47.3047C92.748 47.3047 93.3203 47.5566 93.7578 48.0605C94.1953 48.5645 94.4141 49.2773 94.4141 50.1992C94.4141 50.8398 94.3086 51.3828 94.0977 51.8281C93.8867 52.2734 93.5918 52.6094 93.2129 52.8359C92.8379 53.0625 92.3984 53.1758 91.8945 53.1758C91.4922 53.1758 91.1348 53.0859 90.8223 52.9062C90.5098 52.7227 90.2188 52.4297 89.9492 52.0273V53.9902C89.9492 54.248 89.9688 54.4121 90.0078 54.4824C90.0469 54.5566 90.1191 54.6113 90.2246 54.6465C90.334 54.6855 90.5488 54.707 90.8691 54.7109V55.2734H87.5586V54.7109H87.7344C87.9414 54.7109 88.0801 54.6914 88.1504 54.6523C88.2207 54.6172 88.2754 54.5547 88.3145 54.4648C88.3418 54.4023 88.3555 54.2441 88.3555 53.9902V48.7988C88.3555 48.5449 88.3359 48.377 88.2969 48.2949C88.2578 48.209 88.1973 48.1484 88.1152 48.1133C88.0371 48.0742 87.8516 48.0488 87.5586 48.0371V47.5449ZM91.3086 48.125C90.9297 48.125 90.6074 48.3066 90.3418 48.6699C90.0762 49.0332 89.9434 49.5645 89.9434 50.2637C89.9434 50.9551 90.082 51.4844 90.3594 51.8516C90.6406 52.2188 90.9609 52.4023 91.3203 52.4023C91.6719 52.4023 91.9551 52.2441 92.1699 51.9277C92.4512 51.5098 92.5918 50.9473 92.5918 50.2402C92.5918 49.5918 92.4785 49.0781 92.252 48.6992C92.0254 48.3164 91.7109 48.125 91.3086 48.125ZM101.879 52.3203L102.125 52.7422C101.887 52.9062 101.672 53.0195 101.48 53.082C101.293 53.1445 101.086 53.1758 100.859 53.1758C100.523 53.1758 100.252 53.1055 100.045 52.9648C99.8379 52.8203 99.6484 52.5508 99.4766 52.1562C99.0781 52.5508 98.7207 52.8203 98.4043 52.9648C98.0879 53.1055 97.7305 53.1758 97.332 53.1758C96.7812 53.1758 96.3516 53.0488 96.043 52.7949C95.7344 52.541 95.5801 52.2188 95.5801 51.8281C95.5801 51.2383 95.8652 50.7656 96.4355 50.4102C96.8926 50.1289 97.8945 49.8477 99.4414 49.5664V48.7754C99.4414 48.4629 99.3379 48.209 99.1309 48.0137C98.9238 47.8145 98.6465 47.7148 98.2988 47.7148C98.0332 47.7148 97.7988 47.7715 97.5957 47.8848C97.459 47.959 97.3906 48.0332 97.3906 48.1074C97.3906 48.1465 97.416 48.2051 97.4668 48.2832C97.5762 48.459 97.6309 48.6328 97.6309 48.8047C97.6309 49.0234 97.5586 49.2012 97.4141 49.3379C97.2695 49.4707 97.0762 49.5371 96.834 49.5371C96.5762 49.5371 96.3691 49.4648 96.2129 49.3203C96.0566 49.1719 95.9785 48.9824 95.9785 48.752C95.9785 48.373 96.1836 48.0391 96.5938 47.75C97.1055 47.3906 97.7422 47.2109 98.5039 47.2109C99.0781 47.2109 99.5879 47.3008 100.033 47.4805C100.318 47.5938 100.549 47.793 100.725 48.0781C100.904 48.3594 100.994 48.707 100.994 49.1211V51.9043C100.994 52.1152 101.033 52.2676 101.111 52.3613C101.189 52.4551 101.297 52.502 101.434 52.502C101.547 52.502 101.695 52.4414 101.879 52.3203ZM99.4414 50.0762C98.6055 50.1895 98.0391 50.3652 97.7422 50.6035C97.4492 50.8379 97.3027 51.1484 97.3027 51.5352C97.3027 51.8086 97.3711 52.0195 97.5078 52.168C97.6484 52.3125 97.8438 52.3848 98.0938 52.3848C98.4805 52.3848 98.8008 52.2461 99.0547 51.9688C99.3125 51.6914 99.4414 51.3125 99.4414 50.832V50.0762ZM102.799 53V52.4551H103.168C103.492 52.4551 103.654 52.3242 103.654 52.0625V48.4531C103.654 48.1914 103.492 48.0605 103.168 48.0605H102.799V47.5156H106.309C106.859 47.5156 107.287 47.5586 107.592 47.6445C107.896 47.7266 108.148 47.8809 108.348 48.1074C108.547 48.3301 108.646 48.5918 108.646 48.8926C108.646 49.2676 108.49 49.5664 108.178 49.7891C107.869 50.0117 107.486 50.1387 107.029 50.1699C108.236 50.3145 108.84 50.7793 108.84 51.5645C108.84 51.9902 108.678 52.3359 108.354 52.6016C108.029 52.8672 107.375 53 106.391 53H102.799ZM105.201 49.9297H105.828C106.238 49.9297 106.545 49.8535 106.748 49.7012C106.951 49.5449 107.053 49.3027 107.053 48.9746C107.053 48.3652 106.688 48.0605 105.957 48.0605H105.676C105.492 48.0605 105.367 48.0977 105.301 48.1719C105.234 48.2422 105.201 48.3652 105.201 48.541V49.9297ZM105.963 52.4551C106.479 52.4551 106.818 52.3691 106.982 52.1973C107.146 52.0254 107.229 51.791 107.229 51.4941C107.229 50.7871 106.812 50.4336 105.98 50.4336H105.201V52.0625C105.201 52.3242 105.359 52.4551 105.676 52.4551H105.963ZM112.947 47.2109C113.561 47.2109 114.123 47.3438 114.635 47.6094C115.15 47.875 115.533 48.2227 115.783 48.6523C116.033 49.0781 116.158 49.5918 116.158 50.1934C116.158 51.1543 115.83 51.8926 115.174 52.4082C114.521 52.9199 113.781 53.1758 112.953 53.1758C112.367 53.1758 111.83 53.0449 111.342 52.7832C110.857 52.5176 110.484 52.1621 110.223 51.7168C109.961 51.2676 109.83 50.7617 109.83 50.1992C109.83 49.3516 110.125 48.6426 110.715 48.0723C111.309 47.498 112.053 47.2109 112.947 47.2109ZM112.982 47.7676C112.576 47.7676 112.252 47.9473 112.01 48.3066C111.771 48.6621 111.652 49.2891 111.652 50.1875C111.652 51.1211 111.771 51.7656 112.01 52.1211C112.248 52.4727 112.57 52.6484 112.977 52.6484C113.391 52.6484 113.725 52.4668 113.979 52.1035C114.232 51.7402 114.359 51.1133 114.359 50.2227C114.359 49.3086 114.234 48.6719 113.984 48.3125C113.734 47.9492 113.4 47.7676 112.982 47.7676ZM122.58 51.0195L123.037 51.2363C122.799 51.8535 122.432 52.332 121.936 52.6719C121.439 53.0078 120.85 53.1758 120.166 53.1758C119.24 53.1758 118.518 52.9238 117.998 52.4199C117.479 51.9121 117.219 51.2305 117.219 50.375C117.219 49.4531 117.525 48.6953 118.139 48.1016C118.756 47.5078 119.572 47.2109 120.588 47.2109C121.318 47.2109 121.877 47.3594 122.264 47.6562C122.65 47.9492 122.844 48.3047 122.844 48.7227C122.844 49.0273 122.758 49.2695 122.586 49.4492C122.418 49.625 122.195 49.7129 121.918 49.7129C121.676 49.7129 121.482 49.6445 121.338 49.5078C121.197 49.3672 121.127 49.1855 121.127 48.9629C121.127 48.7715 121.205 48.5488 121.361 48.2949C121.428 48.1895 121.461 48.1152 121.461 48.0723C121.461 47.9941 121.4 47.9238 121.279 47.8613C121.107 47.7637 120.883 47.7148 120.605 47.7148C120.09 47.7148 119.717 47.8789 119.486 48.207C119.178 48.6406 119.023 49.2969 119.023 50.1758C119.023 51.0547 119.176 51.6738 119.48 52.0332C119.789 52.3887 120.186 52.5664 120.67 52.5664C121.053 52.5664 121.412 52.4395 121.748 52.1855C122.088 51.9277 122.365 51.5391 122.58 51.0195ZM130.748 47.5156V48.0254H130.379C130.055 48.0254 129.893 48.1641 129.893 48.4414V52.0625C129.893 52.3242 130.055 52.4551 130.379 52.4551H130.748V53H127.496V52.4551H127.865C128.189 52.4551 128.352 52.3242 128.352 52.0625V48.0254H127.238C126.934 48.0254 126.734 48.0977 126.641 48.2422C126.547 48.3867 126.463 48.7988 126.389 49.4785C126.248 50.7168 126.119 51.5371 126.002 51.9395C125.885 52.3418 125.703 52.6328 125.457 52.8125C125.215 52.9922 124.91 53.082 124.543 53.082C124.254 53.082 124.006 53.0078 123.799 52.8594C123.592 52.707 123.488 52.4844 123.488 52.1914C123.488 51.9492 123.557 51.748 123.693 51.5879C123.83 51.4238 124.016 51.3418 124.25 51.3418C124.742 51.3418 124.988 51.6094 124.988 52.1445C124.988 52.3125 125.035 52.3965 125.129 52.3965C125.395 52.3965 125.582 52.0156 125.691 51.2539C125.801 50.4922 125.855 49.8066 125.855 49.1973C125.855 48.7598 125.789 48.4551 125.656 48.2832C125.523 48.1113 125.295 48.0254 124.971 48.0254H124.83V47.5156H130.748ZM138.113 52.3203L138.359 52.7422C138.121 52.9062 137.906 53.0195 137.715 53.082C137.527 53.1445 137.32 53.1758 137.094 53.1758C136.758 53.1758 136.486 53.1055 136.279 52.9648C136.072 52.8203 135.883 52.5508 135.711 52.1562C135.312 52.5508 134.955 52.8203 134.639 52.9648C134.322 53.1055 133.965 53.1758 133.566 53.1758C133.016 53.1758 132.586 53.0488 132.277 52.7949C131.969 52.541 131.814 52.2188 131.814 51.8281C131.814 51.2383 132.1 50.7656 132.67 50.4102C133.127 50.1289 134.129 49.8477 135.676 49.5664V48.7754C135.676 48.4629 135.572 48.209 135.365 48.0137C135.158 47.8145 134.881 47.7148 134.533 47.7148C134.268 47.7148 134.033 47.7715 133.83 47.8848C133.693 47.959 133.625 48.0332 133.625 48.1074C133.625 48.1465 133.65 48.2051 133.701 48.2832C133.811 48.459 133.865 48.6328 133.865 48.8047C133.865 49.0234 133.793 49.2012 133.648 49.3379C133.504 49.4707 133.311 49.5371 133.068 49.5371C132.811 49.5371 132.604 49.4648 132.447 49.3203C132.291 49.1719 132.213 48.9824 132.213 48.752C132.213 48.373 132.418 48.0391 132.828 47.75C133.34 47.3906 133.977 47.2109 134.738 47.2109C135.312 47.2109 135.822 47.3008 136.268 47.4805C136.553 47.5938 136.783 47.793 136.959 48.0781C137.139 48.3594 137.229 48.707 137.229 49.1211V51.9043C137.229 52.1152 137.268 52.2676 137.346 52.3613C137.424 52.4551 137.531 52.502 137.668 52.502C137.781 52.502 137.93 52.4414 138.113 52.3203ZM135.676 50.0762C134.84 50.1895 134.273 50.3652 133.977 50.6035C133.684 50.8379 133.537 51.1484 133.537 51.5352C133.537 51.8086 133.605 52.0195 133.742 52.168C133.883 52.3125 134.078 52.3848 134.328 52.3848C134.715 52.3848 135.035 52.2461 135.289 51.9688C135.547 51.6914 135.676 51.3125 135.676 50.832V50.0762ZM139.033 53V52.4551H139.402C139.727 52.4551 139.889 52.3242 139.889 52.0625V48.4531C139.889 48.1914 139.727 48.0605 139.402 48.0605H139.033V47.5156H142.543C143.094 47.5156 143.521 47.5586 143.826 47.6445C144.131 47.7266 144.383 47.8809 144.582 48.1074C144.781 48.3301 144.881 48.5918 144.881 48.8926C144.881 49.2676 144.725 49.5664 144.412 49.7891C144.104 50.0117 143.721 50.1387 143.264 50.1699C144.471 50.3145 145.074 50.7793 145.074 51.5645C145.074 51.9902 144.912 52.3359 144.588 52.6016C144.264 52.8672 143.609 53 142.625 53H139.033ZM141.436 49.9297H142.062C142.473 49.9297 142.779 49.8535 142.982 49.7012C143.186 49.5449 143.287 49.3027 143.287 48.9746C143.287 48.3652 142.922 48.0605 142.191 48.0605H141.91C141.727 48.0605 141.602 48.0977 141.535 48.1719C141.469 48.2422 141.436 48.3652 141.436 48.541V49.9297ZM142.197 52.4551C142.713 52.4551 143.053 52.3691 143.217 52.1973C143.381 52.0254 143.463 51.791 143.463 51.4941C143.463 50.7871 143.047 50.4336 142.215 50.4336H141.436V52.0625C141.436 52.3242 141.594 52.4551 141.91 52.4551H142.197ZM148.443 49.8535H150.928V48.4531C150.928 48.1914 150.766 48.0605 150.441 48.0605H150.072V47.5156H153.324V48.0605H152.949C152.629 48.0605 152.469 48.1914 152.469 48.4531V52.0625C152.469 52.3242 152.629 52.4551 152.949 52.4551H153.324V53H150.072V52.4551H150.441C150.766 52.4551 150.928 52.3242 150.928 52.0625V50.5156H148.443V52.0625C148.443 52.3242 148.605 52.4551 148.93 52.4551H149.299V53H146.047V52.4551H146.416C146.74 52.4551 146.902 52.3242 146.902 52.0625V48.4531C146.902 48.1914 146.74 48.0605 146.416 48.0605H146.047V47.5156H149.299V48.0605H148.93C148.605 48.0605 148.443 48.1914 148.443 48.4531V49.8535ZM154.279 53V52.4551H154.648C154.973 52.4551 155.135 52.3242 155.135 52.0625V48.4531C155.135 48.1914 154.973 48.0605 154.648 48.0605H154.279V47.5156H157.572V48.0605H157.156C156.965 48.0605 156.838 48.0996 156.775 48.1777C156.713 48.252 156.682 48.377 156.682 48.5527V49.7598H157.432C159.311 49.7598 160.25 50.3105 160.25 51.4121C160.25 51.8652 160.072 52.2441 159.717 52.5488C159.365 52.8496 158.717 53 157.771 53H154.279ZM156.682 50.3457V52.0625C156.682 52.2969 156.762 52.418 156.922 52.4258C157.012 52.4336 157.064 52.4414 157.08 52.4492C157.084 52.4531 157.088 52.4551 157.092 52.4551H157.461L157.672 52.4609C157.875 52.4609 158.082 52.3906 158.293 52.25C158.508 52.1094 158.615 51.8281 158.615 51.4062C158.615 50.6992 158.197 50.3457 157.361 50.3457H156.682ZM160.32 48.0605V47.5156H163.572V48.0605H163.203C162.879 48.0605 162.717 48.1914 162.717 48.4531V52.0625C162.717 52.3242 162.879 52.4551 163.203 52.4551H163.572V53H160.32V52.4551H160.695C161.016 52.4551 161.176 52.3242 161.176 52.0625V48.4531C161.176 48.1914 161.016 48.0605 160.695 48.0605H160.32ZM164.521 47.5156H167.768V48.0254H167.533C167.389 48.0254 167.289 48.043 167.234 48.0781C167.184 48.1133 167.158 48.1621 167.158 48.2246C167.158 48.2832 167.178 48.3359 167.217 48.3828L168.072 49.4727L168.787 48.7109C168.92 48.5742 168.986 48.4531 168.986 48.3477C168.986 48.25 168.947 48.1758 168.869 48.125C168.768 48.0586 168.615 48.0254 168.412 48.0254H168.289V47.5156H170.809V48.0254C170.559 48.0449 170.355 48.0918 170.199 48.166C170.047 48.2402 169.869 48.3828 169.666 48.5938L168.412 49.8887L170.082 52.0039C170.23 52.1914 170.389 52.3203 170.557 52.3906C170.666 52.4336 170.844 52.4551 171.09 52.4551V53H167.621V52.4551H167.943C168.08 52.4551 168.178 52.4375 168.236 52.4023C168.295 52.3633 168.324 52.3203 168.324 52.2734C168.324 52.2148 168.295 52.1465 168.236 52.0684L167.352 50.9316L166.52 51.793C166.438 51.8789 166.396 51.9707 166.396 52.0684C166.396 52.1816 166.438 52.2754 166.52 52.3496C166.605 52.4199 166.715 52.4551 166.848 52.4551H167.111V53H164.463V52.4551H164.674C164.982 52.4551 165.299 52.2891 165.623 51.957L167.023 50.5215L165.412 48.5059C165.24 48.291 165.107 48.1602 165.014 48.1133C164.92 48.0625 164.756 48.0332 164.521 48.0254V47.5156Z" fill="#737373"/>
<path d="M14.6094 21.1504C15.8379 21.4603 16.8285 21.903 17.5811 22.4785C18.3337 23.043 18.9258 23.7513 19.3574 24.6035C19.7891 25.4557 20.1986 26.7562 20.5859 28.5049C21.1172 30.8844 21.7812 32.0742 22.5781 32.0742C23.4525 32.0742 23.9505 30.9398 24.0723 28.6709H25.2012C24.9909 32.4561 23.5908 34.3486 21.001 34.3486C20.1266 34.3486 19.3796 34.0996 18.7598 33.6016C18.151 33.1035 17.7415 32.4893 17.5312 31.7588C17.321 31.0283 17.1217 29.8662 16.9336 28.2725C16.7122 26.3356 16.4245 24.9964 16.0703 24.2549C15.7272 23.5133 15.1628 22.9655 14.377 22.6113C13.6022 22.2461 12.3184 22.0635 10.5254 22.0635H8.5166V31.4102C8.5166 31.8861 8.62174 32.2292 8.83203 32.4395C9.04232 32.6497 9.45736 32.7549 10.0771 32.7549H12.0693V34H1.59375V32.7549H3.46973C4.48796 32.7549 4.99707 32.362 4.99707 31.5762V11.9199C4.99707 11.1009 4.48796 10.6914 3.46973 10.6914H1.59375V9.44629H12.0693V10.6914H9.81152C9.53483 10.6914 9.24707 10.7855 8.94824 10.9736C8.66048 11.1618 8.5166 11.4772 8.5166 11.9199V20.8184H11.8701C13.2757 20.8184 14.222 20.6025 14.709 20.1709C15.207 19.7393 15.5335 19.1029 15.6885 18.2617C15.8434 17.4095 16.015 16.3304 16.2031 15.0244C16.4134 13.5524 16.6514 12.4124 16.917 11.6045C17.1826 10.7965 17.6419 10.1491 18.2949 9.66211C18.9479 9.17513 19.7669 8.93164 20.752 8.93164C21.8145 8.93164 22.7054 9.2194 23.4248 9.79492C24.1553 10.3594 24.5205 11.1064 24.5205 12.0361C24.5205 12.7223 24.3102 13.3034 23.8896 13.7793C23.4801 14.2552 22.96 14.4932 22.3291 14.4932C21.7979 14.4932 21.333 14.3161 20.9346 13.9619C20.5361 13.6077 20.3369 13.1761 20.3369 12.667C20.3369 12.3682 20.4365 12.0583 20.6357 11.7373C20.7464 11.5492 20.8018 11.3776 20.8018 11.2227C20.8018 10.9902 20.7077 10.7855 20.5195 10.6084C20.3314 10.4313 20.1045 10.3428 19.8389 10.3428C19.374 10.3428 18.9424 10.6361 18.5439 11.2227C18.1455 11.8092 17.7581 13.4196 17.3818 16.0537C17.083 18.1234 16.8008 19.3962 16.5352 19.8721C16.2695 20.348 15.6276 20.7741 14.6094 21.1504ZM31.7588 18.1621C32.0023 19.3242 32.1462 20.4421 32.1904 21.5156C32.9541 20.2982 33.7565 19.4349 34.5977 18.9258C35.4388 18.4167 36.3574 18.1621 37.3535 18.1621C38.416 18.1621 39.4287 18.4886 40.3916 19.1416C41.3656 19.7946 42.1514 20.752 42.749 22.0137C43.3577 23.2754 43.6621 24.6976 43.6621 26.2803C43.6621 28.8148 42.9206 30.8789 41.4375 32.4727C40.209 33.8008 38.737 34.4648 37.0215 34.4648C36.0475 34.4648 35.1676 34.2158 34.3818 33.7178C33.596 33.2197 32.8988 32.4782 32.29 31.4932V37.7852C32.29 38.2721 32.4062 38.6152 32.6387 38.8145C32.9375 39.0801 33.3525 39.2129 33.8838 39.2129H35.0293V40.3916H26.7451V39.2129H27.8906C28.4219 39.2129 28.8203 39.1077 29.0859 38.8975C29.3516 38.6872 29.4844 38.4105 29.4844 38.0674V21.6982C29.4844 20.9346 29.3018 20.3978 28.9365 20.0879C28.5713 19.7669 27.8408 19.5898 26.7451 19.5566V18.4443L31.7588 18.1621ZM36.5898 19.6729C35.3835 19.6729 34.3597 20.2539 33.5186 21.416C32.6885 22.5781 32.2734 24.2604 32.2734 26.4629C32.2734 28.6875 32.6774 30.3311 33.4854 31.3936C34.2933 32.4561 35.3226 32.9873 36.5732 32.9873C37.7464 32.9873 38.6484 32.5335 39.2793 31.626C40.0872 30.4307 40.4912 28.682 40.4912 26.3799C40.4912 23.9671 40.126 22.2461 39.3955 21.2168C38.665 20.1875 37.7298 19.6729 36.5898 19.6729ZM60.9609 26.3301H49.8213C49.8766 28.6986 50.3193 30.3698 51.1494 31.3438C52.1012 32.4395 53.3132 32.9873 54.7852 32.9873C56.9544 32.9873 58.6976 31.7533 60.0146 29.2852L61.0938 29.75C59.4779 32.8932 57.1426 34.4648 54.0879 34.4648C52.0072 34.4648 50.2529 33.7122 48.8252 32.207C47.4085 30.7018 46.7002 28.776 46.7002 26.4297C46.7002 23.9062 47.3975 21.8698 48.792 20.3203C50.1976 18.7598 51.9242 17.9795 53.9717 17.9795C55.4769 17.9795 56.7773 18.3669 57.873 19.1416C58.9688 19.9163 59.7933 21.0286 60.3467 22.4785C60.734 23.4967 60.9388 24.7806 60.9609 26.3301ZM49.8213 25.1514H56.5615C56.96 25.1514 57.2699 25.0186 57.4912 24.7529C57.7126 24.4762 57.8232 24.0114 57.8232 23.3584C57.8232 22.141 57.4414 21.1061 56.6777 20.2539C55.9251 19.4017 55.0342 18.9756 54.0049 18.9756C52.8538 18.9756 51.8743 19.4902 51.0664 20.5195C50.2695 21.5488 49.8545 23.0928 49.8213 25.1514ZM75.2549 29.3848L76.334 29.7002C75.4707 32.8766 73.5671 34.4648 70.623 34.4648C68.4648 34.4648 66.6995 33.751 65.3271 32.3232C63.9548 30.8955 63.2686 28.9974 63.2686 26.6289C63.2686 23.8841 64.0212 21.7591 65.5264 20.2539C67.0316 18.7376 68.8024 17.9795 70.8389 17.9795C72.3662 17.9795 73.6279 18.4001 74.624 19.2412C75.6201 20.0824 76.1182 21.0176 76.1182 22.0469C76.1182 22.6667 75.93 23.1813 75.5537 23.5908C75.1885 23.9893 74.7513 24.1885 74.2422 24.1885C73.7441 24.1885 73.3236 24.0169 72.9805 23.6738C72.6374 23.3307 72.4658 22.9157 72.4658 22.4287C72.4658 21.9417 72.654 21.4769 73.0303 21.0342C73.2074 20.8239 73.2959 20.6579 73.2959 20.5361C73.2959 20.2152 73.0801 19.9053 72.6484 19.6064C72.2168 19.2965 71.6302 19.1416 70.8887 19.1416C69.5384 19.1416 68.5146 19.6341 67.8174 20.6191C66.8213 22.0469 66.3232 23.9284 66.3232 26.2637C66.3232 28.4883 66.766 30.1761 67.6514 31.3271C68.5368 32.4671 69.6657 33.0371 71.0381 33.0371C72.9307 33.0371 74.3363 31.8197 75.2549 29.3848ZM79.0068 23.9893H77.7617L78.1436 18.4443H93.1348L93.5166 23.9893H92.2881C91.9339 22.1188 91.458 20.9346 90.8604 20.4365C90.2738 19.9385 89.5488 19.6895 88.6855 19.6895H86.9424V31.6426C86.9424 32.3841 87.3464 32.7549 88.1543 32.7549H89.9141V34H81.082V32.7549H82.7256C83.6774 32.7549 84.1533 32.29 84.1533 31.3604V19.6895H82.5928C81.6077 19.6895 80.8385 19.9827 80.2852 20.5693C79.7428 21.1449 79.3167 22.2848 79.0068 23.9893ZM108.641 26.5791H100.589V31.6426C100.589 32.3841 100.987 32.7549 101.784 32.7549H103.577V34H94.7285V32.7549H96.3721C97.3128 32.7549 97.7832 32.29 97.7832 31.3604V20.8018C97.7832 20.0602 97.3848 19.6895 96.5879 19.6895H94.8115V18.4443H103.577V19.6895H102C101.059 19.6895 100.589 20.1488 100.589 21.0674V25.1514H108.641V20.8018C108.641 20.0602 108.237 19.6895 107.429 19.6895H105.669V18.4443H114.451V19.6895H112.857C111.906 19.6895 111.43 20.1488 111.43 21.0674V31.6426C111.43 32.3841 111.834 32.7549 112.642 32.7549H114.451V34H105.586V32.7549H107.229C108.17 32.7549 108.641 32.29 108.641 31.3604V26.5791ZM129.725 21.1006V20.4531C129.636 19.944 129.238 19.6895 128.529 19.6895H126.753V18.4443H135.519V19.6895H133.941C133.001 19.6895 132.53 20.1598 132.53 21.1006V31.6426C132.53 32.3841 132.934 32.7549 133.742 32.7549H135.519V34H126.67V32.7549H128.313C129.254 32.7549 129.725 32.29 129.725 31.3604V22.8438L121.905 31.0615V31.6426C121.905 32.3841 122.304 32.7549 123.101 32.7549H124.91V34H116.045V32.7549H117.688C118.629 32.7549 119.1 32.29 119.1 31.3604V20.8018C119.1 20.0602 118.701 19.6895 117.904 19.6895H116.128V18.4443H124.91V19.6895H123.316C122.376 19.6895 121.905 20.1598 121.905 21.1006V29.3682L129.725 21.1006ZM137.129 34V32.7549H138.772C139.724 32.7549 140.2 32.29 140.2 31.3604V20.8018C140.2 20.0602 139.796 19.6895 138.988 19.6895H137.212V18.4443H145.729V19.6895H144.4C143.46 19.6895 142.989 20.1488 142.989 21.0674V32.7549H150.792V20.8018C150.792 20.0602 150.388 19.6895 149.58 19.6895H148.186V18.4443H156.636V19.6895H154.992C154.062 19.6895 153.598 20.1488 153.598 21.0674V31.2939C153.598 32.0023 153.719 32.4229 153.963 32.5557C154.217 32.6885 154.599 32.7549 155.108 32.7549H157.416V38.6982H156.171C155.861 36.4294 155.457 35.0791 154.959 34.6475C154.461 34.2158 153.443 34 151.904 34H137.129ZM174.997 32.29L175.595 33.2197C174.787 34.0498 173.89 34.4648 172.905 34.4648C172.153 34.4648 171.516 34.2601 170.996 33.8506C170.487 33.4411 170.039 32.7217 169.651 31.6924C168.6 32.7992 167.676 33.5407 166.879 33.917C166.082 34.2822 165.125 34.4648 164.007 34.4648C162.413 34.4648 161.201 34.1217 160.371 33.4355C159.541 32.7493 159.126 31.8695 159.126 30.7959C159.126 29.18 160.072 27.8408 161.965 26.7783C163.868 25.7048 166.397 24.9909 169.552 24.6367V22.2793C169.552 21.4382 169.214 20.7188 168.539 20.1211C167.864 19.5234 167.006 19.2246 165.966 19.2246C165.003 19.2246 164.173 19.4238 163.476 19.8223C162.978 20.1211 162.729 20.4144 162.729 20.7021C162.729 20.8682 162.861 21.1283 163.127 21.4824C163.448 21.9251 163.608 22.318 163.608 22.6611C163.608 23.1592 163.448 23.5687 163.127 23.8896C162.806 24.1995 162.385 24.3545 161.865 24.3545C161.312 24.3545 160.847 24.1663 160.471 23.79C160.105 23.4137 159.923 22.9323 159.923 22.3457C159.923 21.25 160.537 20.2484 161.766 19.3408C163.005 18.4333 164.627 17.9795 166.63 17.9795C168.478 17.9795 169.889 18.3779 170.863 19.1748C171.837 19.9827 172.324 20.9622 172.324 22.1133V30.6133C172.324 31.3659 172.446 31.9193 172.689 32.2734C172.933 32.6387 173.248 32.8213 173.636 32.8213C174.067 32.8213 174.521 32.6442 174.997 32.29ZM169.552 25.7324C166.741 26.1198 164.748 26.7507 163.575 27.625C162.701 28.2891 162.264 29.2298 162.264 30.4473C162.264 31.2995 162.491 31.9691 162.944 32.4561C163.398 32.932 163.99 33.1699 164.721 33.1699C166.027 33.1699 167.156 32.6774 168.107 31.6924C169.07 30.6963 169.552 29.4512 169.552 27.957V25.7324Z" fill="#FFA210"/>
</svg>
