<svg width="60" height="60" viewBox="0 0 60 60" fill="none" xmlns="http://www.w3.org/2000/svg">
<g clip-path="url(#clip0)">
<path d="M44.1736 32.7518C41.1749 32.7518 38.3988 33.7207 36.1434 35.3612C35.8799 34.7368 35.6058 34.1171 35.3226 33.5059C33.8604 30.3487 31.8101 27.5753 29.2235 25.2532C28.4373 20.7292 29.2319 16.0629 31.4831 12.0503C32.1471 10.8667 32.4981 9.52348 32.4981 8.16598V4.5702C32.4981 2.0502 30.4508 0 27.9343 0H26.1668C25.3335 0 24.6148 0.585 24.4455 1.40098C24.1249 2.94773 22.7467 4.07039 21.1686 4.07039C19.5905 4.07039 18.2123 2.94773 17.8916 1.40098C17.7225 0.585 17.0038 0 16.1705 0H14.4029C11.8864 0 9.83906 2.0502 9.83906 4.5702V8.16609C9.83906 9.52371 10.19 10.8669 10.854 12.0504C13.1068 16.0658 13.901 20.736 13.112 25.2629C10.5558 27.6055 8.39836 30.5248 7.00101 33.5423C4.67484 38.5663 3.06574 43.8889 2.21859 49.3623C2.02617 50.6052 2.38511 51.8655 3.20332 52.8202C4.01976 53.7727 5.20699 54.319 6.46066 54.319H33.0825C35.5644 57.7573 39.6114 60 44.1736 60C51.7048 60 57.8319 53.8883 57.8319 46.3759C57.8319 38.8635 51.7049 32.7518 44.1736 32.7518ZM25.5554 24.4174H16.7818C16.8615 23.6975 16.9077 22.9761 16.9207 22.2555H25.4164C25.4296 22.9761 25.4757 23.6975 25.5554 24.4174ZM13.3548 8.16609V4.5702C13.3548 3.98871 13.825 3.51562 14.4029 3.51562H14.9023C15.9889 5.94047 18.4321 7.58602 21.1686 7.58602C23.9051 7.58602 26.3483 5.94047 27.4349 3.51562H27.9342C28.5122 3.51562 28.9823 3.98871 28.9823 4.5702V8.16609C28.9823 8.92266 28.7869 9.67102 28.4169 10.3304C26.9471 12.9503 26.0054 15.8067 25.6166 18.74H16.7205C16.3317 15.8068 15.3899 12.9503 13.9202 10.3304C13.5504 9.6709 13.3548 8.92266 13.3548 8.16609ZM6.46078 50.8032C6.15129 50.8032 5.95957 50.6333 5.87261 50.5321C5.78484 50.4296 5.6448 50.2114 5.69296 49.8998C6.48984 44.7514 8.00332 39.745 10.1914 35.0195C11.3823 32.4476 13.2198 29.9527 15.4022 27.933H26.9449C29.1177 29.9057 30.9042 32.3312 32.1326 34.9834C32.5882 35.9673 33.019 36.9741 33.4181 37.9874C31.6002 40.3015 30.5153 43.2146 30.5153 46.3758C30.5153 47.9249 30.7759 49.4145 31.2555 50.8031H6.46078V50.8032ZM44.1736 56.4844C38.5809 56.4844 34.0309 51.9498 34.0309 46.3759C34.0309 40.802 38.5808 36.2674 44.1736 36.2674C49.7664 36.2674 54.3163 40.802 54.3163 46.3759C54.3163 51.9498 49.7662 56.4844 44.1736 56.4844Z" fill="#F2CA7C"/>
<path d="M48.7035 41.92C48.0183 41.232 46.9054 41.2297 46.2175 41.9147L39.7738 48.3314C39.0859 49.0165 39.0836 50.1294 39.7686 50.8173C40.1121 51.1622 40.5631 51.3348 41.0142 51.3348C41.4628 51.3348 41.9116 51.1641 42.2547 50.8226L48.6983 44.4059C49.3861 43.7208 49.3884 42.6079 48.7035 41.92Z" fill="#F2CA7C"/>
<path d="M40.8789 44.2955C41.8497 44.2955 42.6367 43.5085 42.6367 42.5377V40.8272C42.6367 39.8564 41.8497 39.0694 40.8789 39.0694C39.9081 39.0694 39.1211 39.8564 39.1211 40.8272V42.5377C39.1211 43.5085 39.908 44.2955 40.8789 44.2955Z" fill="#F2CA7C"/>
<path d="M47.4683 48.4563C46.4975 48.4563 45.7104 49.2433 45.7104 50.2141V51.9246C45.7104 52.8954 46.4975 53.6824 47.4683 53.6824C48.439 53.6824 49.2261 52.8954 49.2261 51.9246V50.2141C49.2262 49.2433 48.4392 48.4563 47.4683 48.4563Z" fill="#F2CA7C"/>
</g>
<defs>
<clipPath id="clip0">
<rect width="60" height="60" fill="white"/>
</clipPath>
</defs>
</svg>
